<svg width="27" height="27" viewBox="0 0 27 27" fill="none" xmlns="http://www.w3.org/2000/svg">
<path fill-rule="evenodd" clip-rule="evenodd" d="M10.9155 23.3359H15.8345C19.2888 23.3359 21.0159 23.3359 22.2566 22.522C22.7937 22.1697 23.2549 21.7169 23.6137 21.1895C24.4427 19.9714 24.4427 18.2757 24.4427 14.8842C24.4427 11.4928 24.4427 9.79705 23.6137 8.57892C23.2549 8.05158 22.7937 7.59881 22.2566 7.24645C21.4594 6.72346 20.4613 6.53652 18.9332 6.4697C18.204 6.4697 17.5762 5.92719 17.4332 5.22514C17.2187 4.17208 16.2769 3.41406 15.1831 3.41406H11.5669C10.4731 3.41406 9.53137 4.17208 9.31686 5.22514C9.17385 5.92719 8.54602 6.4697 7.81681 6.4697C6.28874 6.53652 5.29067 6.72346 4.49345 7.24645C3.95635 7.59881 3.49519 8.05158 3.13631 8.57892C2.30731 9.79705 2.30731 11.4928 2.30731 14.8842C2.30731 18.2757 2.30731 19.9714 3.13631 21.1895C3.49519 21.7169 3.95635 22.1697 4.49345 22.522C5.73414 23.3359 7.46127 23.3359 10.9155 23.3359ZM13.375 10.3565C10.8281 10.3565 8.76348 12.3837 8.76348 14.8842C8.76348 17.3848 10.8281 19.4119 13.375 19.4119C15.9219 19.4119 17.9866 17.3848 17.9866 14.8842C17.9866 12.3837 15.9219 10.3565 13.375 10.3565ZM13.375 12.1676C11.8469 12.1676 10.6081 13.3839 10.6081 14.8842C10.6081 16.3846 11.8469 17.6009 13.375 17.6009C14.9032 17.6009 16.1419 16.3846 16.1419 14.8842C16.1419 13.3839 14.9032 12.1676 13.375 12.1676ZM18.6014 11.2621C18.6014 10.762 19.0144 10.3565 19.5237 10.3565H20.7535C21.2629 10.3565 21.6758 10.762 21.6758 11.2621C21.6758 11.7622 21.2629 12.1676 20.7535 12.1676H19.5237C19.0144 12.1676 18.6014 11.7622 18.6014 11.2621Z" fill="white"/>
</svg>
