<svg width="25" height="24" viewBox="0 0 25 24" fill="none" xmlns="http://www.w3.org/2000/svg">
<path d="M3.23897 12.9579C2.85953 10.3208 2.66981 9.00229 3.21027 7.87495C3.75073 6.7476 4.90109 6.06234 7.20181 4.69181L8.58665 3.86687C10.6759 2.62229 11.7206 2 12.8749 2C14.0292 2 15.0739 2.62229 17.1631 3.86687L18.548 4.69181C20.8487 6.06234 21.9991 6.7476 22.5395 7.87495C23.08 9.00229 22.8903 10.3208 22.5108 12.9579L22.2321 14.8952C21.7446 18.2827 21.5009 19.9764 20.3259 20.9882C19.1508 22 17.4275 22 13.981 22H11.7688C8.32227 22 6.59899 22 5.42393 20.9882C4.24886 19.9764 4.00516 18.2827 3.51774 14.8952L3.23897 12.9579Z" stroke="#D4D4D4" stroke-width="1.5"/>
<path d="M15.875 18H9.875" stroke="#D4D4D4" stroke-width="1.5" stroke-linecap="round"/>
</svg>
