<svg width="25" height="24" viewBox="0 0 25 24" fill="none" xmlns="http://www.w3.org/2000/svg">
<path fill-rule="evenodd" clip-rule="evenodd" d="M3.21037 7.87495C2.66991 9.00229 2.85963 10.3208 3.23907 12.9579L3.51784 14.8952C4.00525 18.2827 4.24896 19.9764 5.42403 20.9882C6.59909 22 8.32237 22 11.7689 22H13.9811C17.4276 22 19.1509 22 20.326 20.9882C21.501 19.9764 21.7447 18.2827 22.2322 14.8952L22.5109 12.9579C22.8904 10.3208 23.0801 9.00229 22.5396 7.87495C21.9992 6.7476 20.8488 6.06234 18.5481 4.69181L17.1632 3.86687C15.074 2.62229 14.0293 2 12.875 2C11.7207 2 10.676 2.62229 8.58675 3.86687L7.20191 4.69181C4.90119 6.06234 3.75083 6.7476 3.21037 7.87495ZM9.1251 17.9998C9.1251 17.5856 9.46089 17.2498 9.8751 17.2498H15.8751C16.2893 17.2498 16.6251 17.5856 16.6251 17.9998C16.6251 18.414 16.2893 18.7498 15.8751 18.7498H9.8751C9.46089 18.7498 9.1251 18.414 9.1251 17.9998Z" fill="#F7F7F7"/>
</svg>
